<?xml version="1.0" encoding="utf-8"?>
<!-- Designed by Vexels.com - 2016 All Rights Reserved - https://vexels.com/terms-and-conditions/  -->

<svg version="1.1" id="Layer_1" xmlns="http://www.w3.org/2000/svg" xmlns:xlink="http://www.w3.org/1999/xlink" x="0px" y="0px"
	 width="1200px" height="1200px" viewBox="0 0 1200 1200" enable-background="new 0 0 1200 1200" xml:space="preserve">
<g>
	<g>
		<path fill="#00A1AE" d="M1040.608,535.245c0,267.968-217.236,485.225-485.214,485.225c-268.003,0-485.23-217.257-485.23-485.225
			C70.164,267.246,287.39,50,555.394,50C823.372,50,1040.608,267.246,1040.608,535.245z"/>
		<g>
			<defs>
				<path id="SVGID_1_" d="M1040.608,535.245c0,267.968-217.236,485.225-485.214,485.225c-268.003,0-485.23-217.257-485.23-485.225
					C70.164,267.246,287.39,50,555.394,50C823.372,50,1040.608,267.246,1040.608,535.245z"/>
			</defs>
			<clipPath id="SVGID_2_">
				<use xlink:href="#SVGID_1_"  overflow="visible"/>
			</clipPath>
			<linearGradient id="SVGID_3_" gradientUnits="userSpaceOnUse" x1="1064.2515" y1="1008.1793" x2="623.6589" y2="643.1165">
				<stop  offset="0" style="stop-color:#FFFFFF"/>
				<stop  offset="0.0718" style="stop-color:#DFDFDF"/>
				<stop  offset="0.2156" style="stop-color:#A5A5A5"/>
				<stop  offset="0.3593" style="stop-color:#727272"/>
				<stop  offset="0.4998" style="stop-color:#494949"/>
				<stop  offset="0.6362" style="stop-color:#292929"/>
				<stop  offset="0.7674" style="stop-color:#121212"/>
				<stop  offset="0.8912" style="stop-color:#050505"/>
				<stop  offset="1" style="stop-color:#000000"/>
			</linearGradient>
			<polygon opacity="0.5" clip-path="url(#SVGID_2_)" fill="url(#SVGID_3_)" points="354.36,748.544 744.348,1138.531 
				1093.125,1150 1129.836,800.631 1073.453,684.038 641.152,262.196 714.023,496.83 551.058,305.294 471.492,422.285 
				615.216,429.274 597.482,462.149 569.668,532.96 592.442,606.311 531.753,644.246 357.869,614.932 483.9,761.052 
				451.801,670.978 			"/>
		</g>
	</g>
	<polygon fill="#FFFFFF" points="376.226,300.652 366.655,731.474 740.042,737.861 755.989,441.07 615.573,281.501 	"/>
	<g>
		<path fill="#FAB30B" d="M638.54,261.9H407.63c-42.966,0-77.779,40.069-77.779,89.524v328.788
			c0,49.425,34.813,89.493,77.779,89.493h295.231c42.935,0,77.749-40.068,77.749-89.493V431.703L638.54,261.9z M721.37,651.858
			c0,38.793-6.795,68.667-57.302,70.269H446.393c-43.946,2.439-57.332-31.476-57.332-70.269v-258.03
			c0-38.782,8.928-71.556,57.332-70.259h170.272L721.37,456.854V651.858z"/>
		<path fill="#253147" d="M672.089,651.991H444.791c-5.541,0-10.071,4.122-10.071,9.162c0,5.102,4.53,9.204,10.071,9.204h227.298
			c5.55,0,10.04-4.102,10.04-9.204C682.128,656.113,677.639,651.991,672.089,651.991z"/>
		<path fill="#253147" d="M672.089,575.018H444.791c-5.541,0-10.071,4.132-10.071,9.172c0,5.091,4.53,9.213,10.071,9.213h227.298
			c5.55,0,10.04-4.122,10.04-9.213C682.128,579.15,677.639,575.018,672.089,575.018z"/>
		<path fill="#253147" d="M434.72,514.635c0,5.04,4.551,9.183,10.071,9.183h227.604c5.571,0,10.029-4.143,10.029-9.183
			c0-5.061-4.458-9.193-10.029-9.193H444.791C439.272,505.441,434.72,509.574,434.72,514.635z"/>
		<path fill="#253147" d="M434.72,445.069c0,5.03,4.143,9.162,9.213,9.162h207.769c5.061,0,9.162-4.132,9.162-9.162
			c0-5.082-4.101-9.204-9.162-9.204H443.933C438.863,435.865,434.72,439.987,434.72,445.069z"/>
	</g>
	<path opacity="0.5" fill="#FFFFFF" d="M440.179,267.124h-27.355c-40.782,0-74.157,36.119-77.453,82.075
		C355.961,321.743,389.898,287.327,440.179,267.124z"/>
	<path opacity="0.5" fill="#FFFFFF" d="M438.445,764.277H411.09c-40.782,0-74.158-36.119-77.453-82.074
		C354.227,709.659,388.164,744.074,438.445,764.277z"/>
	<path opacity="0.5" fill="#FFFFFF" d="M671.691,764.277h27.354c40.783,0,74.158-36.119,77.453-82.074
		C755.908,709.659,721.972,744.074,671.691,764.277z"/>
</g>
</svg>
